<?xml version="1.0" standalone="no"?>
<!DOCTYPE svg PUBLIC "-//W3C//DTD SVG 20010904//EN"
 "http://www.w3.org/TR/2001/REC-SVG-20010904/DTD/svg10.dtd">
<svg version="1.0" xmlns="http://www.w3.org/2000/svg"
 width="9120.000000pt" height="5752.000000pt" viewBox="0 0 9120.000000 5752.000000"
 preserveAspectRatio="xMidYMid meet">

<g transform="translate(0.000000,5752.000000) scale(0.100000,-0.100000)"
fill="#000000" stroke="none">
<path d="M5977 35213 c-4 -3 -7 -2913 -7 -6465 l0 -6458 1495 0 1495 0 0 2485
0 2485 1990 0 1990 0 0 1495 0 1495 -1990 0 -1990 0 0 990 0 990 2485 0 2485
0 0 1495 0 1495 -3973 0 c-2186 0 -3977 -3 -3980 -7z"/>
<path d="M16705 35208 c-2 -7 -851 -2909 -1885 -6448 -1034 -3539 -1883 -6443
-1886 -6452 -5 -17 75 -18 1590 -18 l1595 0 16 53 c8 28 107 363 218 742 l203
690 1303 3 c1290 2 1303 2 1298 22 -3 11 -200 683 -438 1495 l-432 1475 -424
0 c-278 0 -423 3 -423 10 0 13 950 3282 959 3297 3 6 519 -1743 1145 -3888
l1140 -3899 3088 0 3088 0 0 4970 0 4971 1088 -4 c939 -3 1097 -6 1164 -19
353 -73 559 -245 658 -548 49 -154 70 -386 50 -575 -48 -471 -257 -716 -690
-812 -65 -14 -179 -17 -825 -22 -659 -5 -750 -8 -748 -21 2 -8 513 -1797 1137
-3975 l1133 -3960 1497 -3 c1423 -2 1497 -1 1492 15 -22 69 -1567 5471 -1569
5484 -1 10 45 48 133 107 440 296 746 643 989 1122 239 472 372 988 433 1685
19 227 16 892 -5 1125 -62 659 -193 1163 -421 1617 -483 966 -1349 1531 -2621
1712 -406 58 -268 56 -3200 56 l-2690 0 -5 -6429 -5 -6429 -1874 6414 c-1031
3528 -1878 6422 -1883 6432 -8 16 -99 17 -1699 17 -1343 0 -1691 -3 -1694 -12z"/>
<path d="M33807 35214 c-4 -4 -7 -2914 -7 -6466 l0 -6459 2728 4 c1942 3 2757
7 2832 15 496 54 805 114 1137 223 526 172 948 429 1299 791 483 499 785 1177
903 2033 58 412 54 242 59 3255 2 1925 0 2839 -8 2985 -53 1026 -305 1799
-779 2395 -504 634 -1267 1026 -2276 1169 -398 57 -249 54 -3181 58 -1485 2
-2703 0 -2707 -3z m5245 -3006 c404 -83 611 -290 695 -693 16 -73 17 -303 21
-2675 2 -1861 0 -2630 -8 -2719 -43 -470 -254 -720 -690 -818 -67 -15 -191
-17 -1172 -20 l-1098 -4 0 3476 0 3476 1088 -4 c939 -3 1097 -6 1164 -19z"/>
<path d="M46026 35203 c-3 -10 -845 -2891 -1871 -6403 -1026 -3512 -1874
-6413 -1885 -6448 l-18 -62 1596 2 1596 3 202 690 c111 380 210 714 219 743
l16 52 1300 0 c894 0 1299 3 1299 10 0 9 -829 2846 -861 2948 l-11 32 -424 0
c-233 0 -424 3 -424 6 0 8 950 3276 958 3298 6 13 37 -81 106 -315 54 -184
566 -1938 1139 -3899 l1042 -3565 1597 -3 1597 -2 -9 27 c-7 22 -3687 12609
-3755 12846 l-16 57 -1694 0 c-1604 0 -1694 -1 -1699 -17z"/>
<path d="M56350 35214 c-563 -34 -935 -94 -1345 -219 -384 -117 -788 -326
-1084 -561 -117 -94 -353 -329 -445 -444 -247 -310 -462 -739 -585 -1165 -146
-505 -211 -1075 -198 -1725 14 -672 103 -1210 281 -1703 270 -743 756 -1310
1426 -1665 410 -217 937 -369 1500 -432 305 -34 489 -40 1166 -40 387 0 704
-4 763 -10 144 -15 281 -52 390 -106 79 -39 109 -61 180 -133 101 -101 142
-167 187 -300 45 -129 64 -263 64 -446 0 -593 -259 -910 -795 -974 -123 -15
-1260 -15 -1380 0 -500 61 -755 343 -791 877 l-7 102 -1495 0 -1495 0 6 -217
c30 -981 240 -1741 647 -2348 208 -310 528 -620 850 -823 457 -287 1045 -477
1707 -551 337 -38 519 -43 1398 -38 886 5 953 8 1300 58 1107 159 1914 620
2418 1380 454 686 668 1638 627 2789 -55 1513 -549 2541 -1510 3145 -374 234
-880 415 -1415 504 -387 65 -686 81 -1500 81 -412 0 -683 4 -740 11 -436 54
-678 268 -766 680 -32 150 -32 447 0 597 41 193 106 326 215 437 137 140 326
219 585 245 135 13 1188 13 1320 0 518 -54 789 -341 819 -873 l7 -112 1489 -3
c820 -1 1493 1 1497 5 11 11 -7 474 -26 659 -42 426 -114 775 -231 1116 -62
181 -102 276 -194 458 -320 632 -832 1108 -1498 1391 -423 180 -872 283 -1477
340 -110 10 -1721 21 -1865 13z"/>
<path d="M66610 28755 l0 -6465 1495 0 1495 0 0 2485 0 2485 1985 0 1985 0 0
1495 0 1495 -1985 0 -1985 0 0 990 0 990 2485 0 2485 0 -2 1493 -3 1492 -3977
3 -3978 2 0 -6465z"/>
<path d="M77325 35163 c-76 -261 -3748 -12824 -3755 -12846 l-9 -27 1597 2
1597 3 205 700 c113 385 211 719 218 743 l13 42 1302 2 1302 3 -425 1450
c-234 798 -431 1469 -438 1493 l-13 42 -424 0 c-234 0 -425 2 -425 5 0 9 961
3310 965 3314 2 2 7 -8 10 -21 4 -14 516 -1768 1139 -3899 l1132 -3874 1596
-3 1596 -2 -18 62 c-11 35 -859 2936 -1885 6448 -1026 3512 -1868 6393 -1871
6403 -5 16 -95 17 -1699 17 l-1694 0 -16 -57z"/>
</g>
</svg>
