<?xml version="1.0" standalone="no"?>
<!DOCTYPE svg PUBLIC "-//W3C//DTD SVG 20010904//EN"
 "http://www.w3.org/TR/2001/REC-SVG-20010904/DTD/svg10.dtd">
<svg version="1.0" xmlns="http://www.w3.org/2000/svg"
 width="16873.000000pt" height="16873.000000pt" viewBox="0 0 16873.000000 16873.000000"
 preserveAspectRatio="xMidYMid meet">

<g transform="translate(0.000000,16873.000000) scale(0.100000,-0.100000)"
fill="#000000" stroke="none">
<path d="M83826 146617 c-438 -1102 -611 -1600 -1830 -5272 -853 -2567 -1891
-5679 -2846 -8525 -292 -872 -644 -1927 -781 -2345 -137 -418 -265 -792 -283
-832 -63 -131 -152 -199 -292 -222 -40 -6 -3076 -7 -8667 -4 -5399 4 -8607 3
-8607 -3 0 -11 406 -342 647 -528 87 -67 1389 -1066 2893 -2221 2826 -2169
4523 -3474 6335 -4871 1572 -1213 2696 -2073 3802 -2912 443 -336 525 -411
580 -524 57 -116 66 -220 34 -373 -11 -49 -116 -394 -234 -765 -489 -1534
-1393 -4418 -3561 -11355 -1171 -3750 -1142 -3656 -1575 -5075 l-138 -455 26
-23 c14 -12 34 -25 43 -28 13 -4 868 647 2930 2228 3366 2580 5031 3856 8841
6777 1511 1158 2751 2107 2755 2108 4 1 3281 -2514 7282 -5589 5605 -4307
7276 -5586 7278 -5572 10 69 -77 360 -788 2644 -2480 7969 -3380 10841 -4431
14147 -165 518 -304 968 -310 1000 -27 144 12 277 114 389 59 65 41 51 1142
894 2041 1564 4892 3759 6980 5374 2819 2180 5163 4000 5637 4376 l447 355
-8758 3 -8759 2 -2901 8703 c-1596 4786 -2905 8705 -2909 8709 -4 4 -47 -92
-96 -215z"/>
<path d="M16000 144148 c0 -689 -5 -2361 -11 -3716 -15 -3599 4 -5996 66
-8037 15 -481 26 -626 66 -833 169 -882 640 -1751 1147 -2115 147 -105 4877
-2873 9357 -5474 4094 -2377 7924 -4588 16710 -9645 2002 -1153 4110 -2367
4685 -2698 575 -331 1050 -603 1055 -603 6 0 207 107 448 238 337 184 436 242
432 254 -2 9 -66 246 -140 526 -227 848 -468 1735 -1074 3945 -1145 4180
-1698 6341 -2211 8640 -45 201 -104 454 -131 563 -291 1163 -731 2137 -1347
2982 -565 775 -1340 1488 -2261 2079 -278 178 -478 295 -1171 679 -4015 2228
-7049 3962 -14740 8427 -3400 1974 -4550 2640 -6160 3567 -1219 702 -1379 792
-1935 1082 -306 160 -2765 1391 -2777 1391 -5 0 -8 -564 -8 -1252z"/>
<path d="M151465 144781 c-1285 -644 -1644 -828 -2085 -1069 -488 -266 -2762
-1579 -7470 -4312 -2751 -1597 -3643 -2114 -4695 -2722 -3984 -2303 -7030
-4034 -9760 -5548 -1147 -636 -1267 -705 -1630 -946 -577 -381 -1011 -738
-1475 -1210 -955 -973 -1595 -2144 -1996 -3654 -30 -113 -95 -387 -145 -610
-518 -2318 -1050 -4406 -2094 -8225 -902 -3297 -1031 -3773 -1269 -4665 -74
-281 -82 -316 -67 -325 9 -5 207 -114 441 -241 l425 -232 35 20 c64 37 5342
3076 7925 4563 11123 6403 18220 10518 23518 13638 309 182 370 224 494 342
495 467 916 1375 1018 2195 28 230 62 1521 86 3270 22 1636 9 10352 -15 10349
-6 -1 -564 -279 -1241 -618z"/>
<path d="M16000 125623 c107 -389 609 -2350 1155 -4508 1063 -4204 1511 -5903
2071 -7845 345 -1197 830 -2771 986 -3205 496 -1372 1575 -2822 2765 -3717
295 -222 243 -191 2913 -1765 11825 -6974 24251 -14164 37270 -21566 1275
-724 1321 -751 1595 -932 721 -476 1229 -974 1584 -1553 398 -650 604 -1392
662 -2392 12 -211 11 -681 -11 -3400 -23 -2930 -32 -6358 -31 -13060 1 -9985
-14 -15689 -49 -19665 -14 -1540 -4 -1822 91 -2395 207 -1253 751 -2142 1784
-2915 214 -160 648 -440 812 -524 l40 -20 5488 8102 5488 8102 -7 4360 c-17
11549 -18 15813 -7 18435 15 3531 34 5987 63 8150 26 1974 18 2329 -68 2930
-98 682 -300 1301 -589 1806 -384 668 -965 1258 -1761 1784 -282 186 -426 271
-1319 770 -4081 2282 -8500 4798 -14020 7983 -2110 1217 -3860 2231 -8710
5042 -4324 2507 -5365 3109 -8815 5100 -5293 3055 -9157 5285 -21037 12143
-4593 2652 -8354 4822 -8357 4822 -2 0 4 -30 14 -67z"/>
<path d="M152505 125561 c-273 -159 -20457 -11811 -28280 -16326 -4466 -2577
-5246 -3029 -10475 -6060 -11174 -6478 -16479 -9517 -21855 -12520 -851 -475
-1004 -562 -1175 -668 -1042 -647 -1717 -1339 -2130 -2182 -267 -545 -434
-1178 -504 -1910 -45 -472 -49 -840 -27 -2480 72 -5346 82 -10163 55 -27170
l-6 -3880 5486 -8099 c3018 -4455 5488 -8101 5490 -8103 2 -2 71 35 152 83
1621 947 2362 2049 2538 3774 47 455 49 683 27 3400 -24 3092 -31 5890 -31
13315 -1 10296 -13 14919 -51 19650 -13 1576 -11 1714 32 2140 152 1496 748
2517 1988 3405 329 235 441 302 1651 990 12799 7275 25483 14612 37085 21453
2319 1367 2795 1650 2950 1752 414 272 774 573 1175 981 882 898 1595 2027
1958 3099 127 375 470 1481 695 2240 641 2162 1134 4007 2212 8270 402 1590
603 2383 791 3115 167 649 473 1829 479 1848 2 6 1 12 -3 12 -4 -1 -106 -59
-227 -129z"/>
<path d="M22670 100214 c0 -3 51 -195 114 -427 285 -1050 608 -2259 1181
-4417 1065 -4014 1534 -5730 2087 -7645 428 -1483 985 -3311 1120 -3675 521
-1407 1556 -2767 2633 -3461 138 -89 2706 -1608 4685 -2771 5705 -3353 10483
-6120 22515 -13035 1656 -952 3381 -1944 3835 -2205 941 -541 951 -547 1120
-623 249 -113 465 -195 1010 -382 241 -83 686 -241 781 -278 14 -5 16 131 22
1507 3 832 12 2478 18 3658 17 3107 -2 5160 -66 7150 -30 933 -37 1026 -91
1282 -127 605 -427 1239 -838 1768 -114 147 -387 420 -518 516 -117 87 -1270
767 -5173 3054 -6492 3803 -12562 7332 -24795 14413 -2357 1364 -5488 3177
-6959 4029 -1471 851 -2675 1548 -2677 1548 -2 0 -4 -3 -4 -6z"/>
<path d="M139825 96619 c-9431 -5459 -11666 -6754 -15425 -8937 -6621 -3844
-12971 -7553 -17540 -10245 -173 -102 -360 -218 -415 -259 -123 -90 -391 -355
-509 -503 -308 -387 -569 -872 -731 -1360 -107 -322 -156 -559 -175 -845 -15
-227 -41 -1027 -65 -1985 -34 -1342 -48 -3571 -35 -5855 5 -1031 13 -2655 17
-3607 3 -953 8 -1733 9 -1733 2 0 58 21 126 46 158 59 356 129 752 266 558
192 820 295 1071 423 77 39 754 424 1505 857 751 432 2632 1513 4180 2403
10058 5781 14841 8547 19915 11520 2637 1545 6222 3662 6440 3803 552 357
1162 966 1638 1635 434 609 796 1305 1013 1942 133 390 545 1737 865 2825 585
1989 1120 3933 2169 7885 686 2583 1177 4419 1365 5105 31 112 54 207 53 211
-2 5 -2802 -1611 -6223 -3592z"/>
<path d="M81582 50185 c-386 -130 -816 -478 -973 -787 -28 -56 -195 -486 -791
-2038 -1221 -3179 -2467 -6462 -4643 -12225 -455 -1204 -1058 -2804 -1342
-3553 -283 -750 -513 -1365 -511 -1367 2 -2 132 55 288 126 268 123 768 349
2365 1069 1626 734 2530 1156 3530 1649 550 272 641 320 819 439 191 126 361
266 542 447 177 177 295 319 414 498 152 228 148 219 665 1562 611 1588 1300
3427 2111 5638 159 433 291 787 295 787 3 0 129 -332 279 -737 1091 -2943
2543 -6760 2659 -6992 201 -398 553 -798 974 -1110 227 -168 399 -262 1182
-644 1066 -521 1888 -901 4210 -1947 468 -211 1050 -474 1295 -586 245 -111
446 -199 448 -195 1 3 -52 150 -119 326 -66 176 -634 1679 -1261 3340 -1914
5070 -2839 7515 -3748 9901 -1118 2933 -2111 5516 -2155 5604 -162 320 -585
664 -980 796 l-103 34 -2673 0 -2674 0 -103 -35z"/>
</g>
</svg>
